# xmcd
#
# Track frame offsets:
#	150
#	17912
#	33459
#	52318
#	64246
#	78744
#	92535
#	111680
#	124984
#	137492
#	155246
#
# Disc length: 2381 seconds
#
# Revision: 2
# Processed by: cddbd v1.5.2PL0 Copyright (c) Steve Scherf et al.
# Submitted via: audiograbber 1.83.01
#
DISCID=a6094b0b
DTITLE=The World Of Salsa  - The World Of Salsa - CD2
DYEAR=1997
DGENRE=Salsa
TTITLE0=01 - Bechamel - Nene
TTITLE1=02 - Cherokee - 1, 2, 3, Baila
TTITLE2=03 - Ruben Roberts - Noche Loca
TTITLE3=04 - Ruben Roberts - Bailando
TTITLE4=05 - Los Godos - El Que No Baila Es Un Aburrido
TTITLE5=06 - Pendro Cascanueces - Marta
TTITLE6=07 - Ruben Roberts - Cumbia Dance (Spanish Version)
TTITLE7=08 - Juan Pandora - Johnny's Mambo
TTITLE8=09 - Los Muchachos - La Plancha
TTITLE9=10 - Los Muchachos - Quisiera Saber - Canta Mi Corazon - Ana Y Saoco
TTITLE10=11 - El Estevez - Margarita
EXTD=YEAR: 1997
EXTT0=
EXTT1=
EXTT2=
EXTT3=
EXTT4=
EXTT5=
EXTT6=
EXTT7=
EXTT8=
EXTT9=
EXTT10=
PLAYORDER=
